<svg width="8" height="15" viewBox="0 0 8 15" version="1.1" xmlns="http://www.w3.org/2000/svg" xmlns:xlink="http://www.w3.org/1999/xlink"><defs><path id="path-1" d="M.042.253h7.347V15H.042z"/></defs><g id="PHASE-1-FINAL" stroke="none" stroke-width="1" fill="none" fill-rule="evenodd"><g id="HOME—DESKTOP-Copy-9" transform="translate(-712 -2544)"><g id="Group-5" transform="translate(0 1621)"><g id="Group-4" transform="translate(611 923)"><g id="facebook" transform="translate(101.5)"><mask id="mask-2" fill="#fff"><use xlink:href="#path-1"/></mask><path d="M7.39.358v2.34H6.054c-.49 0-.817.108-.987.32-.17.213-.255.531-.255.956V5.65h2.491l-.331 2.623h-2.16v6.728H2.21V8.273H.04V5.65h2.17V3.718c0-1.099.294-1.951.884-2.557C3.685.556 4.47.253 5.45.253c.833 0 1.48.035 1.94.105" id="Fill-6" fill="#5B574E" mask="url(#mask-2)"/></g></g></g></g></g></svg>