<svg width="14" height="13" viewBox="0 0 14 13" version="1.1" xmlns="http://www.w3.org/2000/svg" xmlns:xlink="http://www.w3.org/1999/xlink"><defs><path id="path-1" d="M0 .034h12.966V13H0z"/></defs><g id="PHASE-1-FINAL" stroke="none" stroke-width="1" fill="none" fill-rule="evenodd"><g id="HOME—DESKTOP-Copy-9" transform="translate(-611 -2545)"><g id="Group-5" transform="translate(0 1621)"><g id="Group-4" transform="translate(611 923)"><g id="instagram" transform="translate(.5 1)"><mask id="mask-2" fill="#fff"><use xlink:href="#path-1"/></mask><path d="M10.493 2.508a.745.745 0 01.228.548.743.743 0 01-.228.548.748.748 0 01-.55.229.747.747 0 01-.548-.229.747.747 0 01-.227-.548.75.75 0 01.227-.548.747.747 0 01.548-.228c.215 0 .397.075.55.228M8.01 8.046c.422-.423.633-.932.633-1.528A2.08 2.08 0 008.01 4.99a2.083 2.083 0 00-1.528-.634c-.596 0-1.106.212-1.528.634a2.08 2.08 0 00-.633 1.528c0 .596.21 1.105.633 1.528.422.422.932.632 1.528.632s1.105-.21 1.528-.632m.828-3.884c.647.648.97 1.433.97 2.356 0 .922-.323 1.708-.97 2.355a3.212 3.212 0 01-2.356.97 3.207 3.207 0 01-2.355-.97 3.207 3.207 0 01-.97-2.355c0-.923.323-1.708.97-2.356a3.207 3.207 0 012.355-.971c.923 0 1.708.324 2.356.97m-1.71-2.967l-.646.005-.646-.005h-.89c-.204.004-.475.012-.815.027-.34.014-.63.041-.869.083-.24.043-.44.096-.603.156a2.21 2.21 0 00-1.233 1.233 3.464 3.464 0 00-.157.604c-.043.24-.07.528-.084.868a28.242 28.242 0 00-.025 1.706c.002.392.005.606.005.647 0 .039-.003.254-.005.645a27.932 27.932 0 00.025 1.704c.014.342.041.63.084.87.043.24.095.44.157.604.112.281.276.53.489.743.214.214.462.378.744.49.162.062.364.113.603.155.239.043.529.072.869.086.34.014.611.021.816.025.201.003.499.003.89 0l.645-.005.647.005c.39.003.687.003.89 0 .203-.004.474-.011.814-.025.34-.014.63-.043.87-.086.238-.042.44-.093.604-.155a2.206 2.206 0 001.232-1.233c.061-.164.114-.364.156-.604.042-.24.07-.528.084-.87a27.828 27.828 0 00.025-1.704l-.004-.645.004-.647c.003-.39.003-.687 0-.89a30.946 30.946 0 00-.025-.816 6.534 6.534 0 00-.084-.868 3.355 3.355 0 00-.157-.604 2.201 2.201 0 00-1.231-1.233 3.613 3.613 0 00-.604-.156c-.24-.042-.53-.07-.87-.083-.34-.015-.611-.023-.814-.027a102.1 102.1 0 00-.89 0m5.836 5.324c0 1.288-.014 2.18-.041 2.675-.057 1.17-.406 2.077-1.048 2.718-.642.642-1.547.99-2.718 1.047-.495.028-1.388.042-2.676.042-1.288 0-2.18-.014-2.676-.042-1.17-.057-2.077-.405-2.718-1.047-.642-.64-.991-1.547-1.047-2.718C.013 8.699 0 7.806 0 6.518c0-1.29.013-2.181.042-2.677.056-1.17.405-2.076 1.047-2.719C1.73.482 2.637.132 3.807.076 4.302.048 5.195.034 6.483.034c1.288 0 2.18.014 2.676.042 1.171.057 2.076.406 2.718 1.046.642.643.99 1.548 1.048 2.72.027.495.041 1.386.041 2.676" id="Fill-1" fill="#5B574E" mask="url(#mask-2)"/></g></g></g></g></g></svg>