<svg xmlns="http://www.w3.org/2000/svg" viewBox="0 0 1233.12 585.88" height="585.88" width="1233.12" xml:space="preserve" id="svg2" version="1.1"><g transform="matrix(1.33333 0 0 -1.33333 0 585.88)" id="g10"><g transform="scale(.1)" id="g12" fill="#221d1d" fill-opacity="1" fill-rule="nonzero" stroke="none"><path id="path14" d="M1594.49 982.121l-993.361-3.57L1115.21 2109.04zM1017.05 3347.52H656.492l-43.426-50.57 408.824-973.72L0 64.559l42.984-51.457h91.977l42.984 24.609 364.59 799.301H1651.74l341.97-798.551 43.35-25.36h368.09l43.34 50.72-1388.1 3258.269-43.34 25.43"/><path id="path16" d="M5642.3 3361.8L4721.18 687.52 3489.85 3323.2l-42.8 24.32h-398.87l-42.72-52.14 348.62-726.56L3010.22 55.488l45.67-42.386h91.98l45.68 33.98 294.41 2257.638L4585.42 0l86.86 3.578 802.49 2330.882 450.2-2289.39 45.31-31.968h345.12l45.41 44.02-628.95 3300.138-89.56 4.54"/><path id="path18" d="M9213.96 142.578l-1674.33 1.563V1745.2l1448.68-.74 34.45 28.56v65.22l-34.37 28.56-1448.76 1.86V3215.5l1663.68 1.57 34.46 28.56v65.23l-34.46 28.56h-2043.7l-34.45-28.56V48.79l34.45-28.552h2054.35l34.46 28.551v65.231l-34.46 28.558"/><path id="path20" d="M7638.06 3722.96l1186.55 560.4 19.1 40.48-27.69 59.07-43.32 11.24-1186.56-560.41-19.08-40.47 27.68-59.07 43.32-11.24"/><path id="path22" d="M428.16 3798.71l706.75 445.69 706.76-445.69 44.38 5.7 34.9 55.1-13.83 42.56L1160 4375.18h-50.17l-747.127-473.11-13.832-42.56 34.895-55.1 44.394-5.7"/></g></g></svg>