<svg width="12" height="14" viewBox="0 0 12 14" version="1.1" xmlns="http://www.w3.org/2000/svg"><g id="PHASE-1-FINAL" stroke="none" stroke-width="1" fill="none" fill-rule="evenodd"><g id="HOME—DESKTOP-Copy-9" transform="translate(-662 -2545)" fill="#5B574E"><g id="Group-5" transform="translate(0 1621)"><g id="Group-4" transform="translate(611 923)"><path d="M51.5 6.023c0-.606.107-1.176.322-1.712.214-.536.51-1.003.89-1.401a6.051 6.051 0 011.306-1.034 6.08 6.08 0 011.59-.657A7.01 7.01 0 0157.345 1c.904 0 1.746.187 2.525.56a4.741 4.741 0 011.9 1.629c.487.712.73 1.516.73 2.414 0 .538-.054 1.066-.163 1.581a6.237 6.237 0 01-.516 1.489 5.188 5.188 0 01-.859 1.259c-.338.36-.753.65-1.246.865a4.002 4.002 0 01-1.624.325c-.39 0-.777-.09-1.16-.27-.384-.179-.659-.425-.826-.74-.058.22-.137.535-.24.947l-.201.799c-.032.12-.091.319-.177.598a3.88 3.88 0 01-.224.597l-.274.526c-.121.23-.253.447-.396.652a28 28 0 01-.532.728L53.94 15l-.078-.084c-.086-.88-.129-1.407-.129-1.582 0-.515.062-1.094.185-1.736.123-.644.313-1.449.573-2.42.256-.97.405-1.54.446-1.708-.183-.364-.276-.839-.276-1.422 0-.465.15-.902.448-1.311.297-.41.675-.615 1.133-.615.35 0 .623.113.818.34.194.228.291.514.291.863 0 .37-.125.907-.377 1.606-.253.702-.379 1.227-.379 1.575 0 .353.129.645.387.878.258.234.57.35.937.35.315 0 .608-.071.876-.21.27-.141.494-.332.675-.572a4.719 4.719 0 00.807-1.73c.079-.328.135-.64.172-.934a6.68 6.68 0 00.057-.837c0-.97-.315-1.726-.94-2.267-.628-.54-1.447-.812-2.455-.812-1.146 0-2.103.363-2.87 1.09-.768.725-1.152 1.646-1.152 2.763 0 .247.036.485.108.715.07.23.148.412.23.548.084.133.161.261.233.382.072.12.108.206.108.256 0 .157-.044.362-.13.615-.084.252-.19.378-.318.378-.01 0-.059-.008-.145-.025a1.76 1.76 0 01-.778-.471 2.419 2.419 0 01-.523-.794 4.982 4.982 0 01-.28-.91 4.348 4.348 0 01-.095-.896" id="pinterest"/></g></g></g></g></svg>