<svg width="14" height="11" viewBox="0 0 14 11" version="1.1" xmlns="http://www.w3.org/2000/svg"><g id="PHASE-1-FINAL" stroke="none" stroke-width="1" fill="none" fill-rule="evenodd"><g id="HOME—DESKTOP-Copy-9" transform="translate(-759 -2546)" fill="#5B574E"><g id="Group-5" transform="translate(0 1621)"><g id="Group-4" transform="translate(611 923)"><path d="M161.5 3.306a5.73 5.73 0 01-1.336 1.436 8.163 8.163 0 01-.305 2.59 8.15 8.15 0 01-.953 2.135 8.287 8.287 0 01-1.521 1.81c-.59.524-1.299.942-2.129 1.255a7.515 7.515 0 01-2.664.468 7.19 7.19 0 01-4.092-1.246c.193.023.408.033.644.033 1.237 0 2.34-.395 3.307-1.184a2.53 2.53 0 01-1.55-.556 2.698 2.698 0 01-.94-1.369c.18.028.348.042.502.042.237 0 .471-.032.701-.095a2.607 2.607 0 01-1.53-.958 2.75 2.75 0 01-.606-1.766v-.033c.375.218.775.335 1.205.351a2.738 2.738 0 01-.867-.988 2.81 2.81 0 01-.32-1.323c0-.504.12-.971.362-1.401a7.627 7.627 0 002.429 2.05 7.213 7.213 0 003.064.855 3.189 3.189 0 01-.066-.636c0-.768.26-1.422.78-1.964.52-.541 1.148-.812 1.884-.812.77 0 1.42.293 1.948.878a5.132 5.132 0 001.69-.671 2.684 2.684 0 01-1.172 1.53 5.095 5.095 0 001.535-.43" id="twitter"/></g></g></g></g></svg>