<svg width="17" height="11" viewBox="0 0 17 11" version="1.1" xmlns="http://www.w3.org/2000/svg" xmlns:xlink="http://www.w3.org/1999/xlink"><defs><path id="path-1" d="M0 0h15.59v10.88H0z"/></defs><g id="PHASE-1-FINAL" stroke="none" stroke-width="1" fill="none" fill-rule="evenodd"><g id="HOME—DESKTOP-Copy-9" transform="translate(-811 -2546)"><g id="Group-5" transform="translate(0 1621)"><g id="Group-4" transform="translate(611 923)"><g id="youtube" transform="translate(200.5 2)"><mask id="mask-2" fill="#fff"><use xlink:href="#path-1"/></mask><path d="M11.135 5.44a.488.488 0 00-.261-.46L6.42 2.262a.533.533 0 00-.565-.018.504.504 0 00-.288.476v5.44c0 .216.096.374.288.476a.602.602 0 00.27.067.504.504 0 00.295-.085l4.454-2.72a.485.485 0 00.261-.458m4.446-1.274a79.2 79.2 0 01-.001 2.548c-.006.307-.03.693-.073 1.16-.043.469-.11.886-.197 1.254a1.97 1.97 0 01-.6 1.046 1.845 1.845 0 01-1.078.493c-1.288.142-3.234.213-5.837.213-2.605 0-4.551-.071-5.837-.213a1.863 1.863 0 01-1.084-.493A1.97 1.97 0 01.27 9.128a10.53 10.53 0 01-.187-1.254 16.15 16.15 0 01-.073-1.16C.003 6.408 0 5.984 0 5.44c0-.545.003-.97.01-1.274.004-.308.029-.693.072-1.16.044-.469.109-.886.196-1.254a1.97 1.97 0 01.6-1.046 1.849 1.849 0 011.08-.493C3.244.071 5.19 0 7.795 0c2.603 0 4.55.071 5.837.213.412.045.773.21 1.083.493.31.283.511.632.605 1.046.081.368.144.785.187 1.254.042.467.067.852.074 1.16" id="Fill-11" fill="#5B574E" mask="url(#mask-2)"/></g></g></g></g></g></svg>